<?xml version="1.0" encoding="utf-8" standalone="no"?>
<!-- Generator: DataGraph - https://www.visualdatatools.com/DataGraph/index.html  --><!DOCTYPE svg PUBLIC "-//W3C//DTD SVG 1.1//EN" "http://www.w3.org/Graphics/SVG/1.1/DTD/svg11.dtd">
<svg width="288" height="360" version="1.1" xmlns="http://www.w3.org/2000/svg" xmlns:xlink="http://www.w3.org/1999/xlink">
<g>
  <!-- Background -->
  <g id="Background">
    <defs>
      <clipPath id="clipPath">
        <rect x="50.5" y="19.5" width="222" height="271"/>
      </clipPath>
    </defs>
    <!-- Grid -->
    <g id="Grid" clip-path="url(#clipPath)">
      <path d="M 90.8636 290.5 L 90.8636 19.5 M 131.227 290.5 L 131.227 19.5 M 171.591 290.5 L 171.591 19.5 
               M 211.955 290.5 L 211.955 19.5 M 252.318 290.5 L 252.318 19.5 "
        stroke="black" stroke-dasharray="0.0102396,4.09582" stroke-dashoffset="0.00511978" stroke-linecap="round" fill="none" stroke-width="0.5"/>
      <path d="M 50.5 241.227 L 272.5 241.227 M 50.5 191.955 L 272.5 191.955 M 50.5 142.682 L 272.5 142.682 
               M 50.5 93.4091 L 272.5 93.4091 M 50.5 44.1364 L 272.5 44.1364 "
        stroke="black" stroke-dasharray="0.0100657,4.0263" stroke-dashoffset="0.00503287" stroke-linecap="round" fill="none" stroke-width="0.5"/>
    </g>
  </g>
  <!-- Commands -->
  <g id="Commands">
    <!-- Baseline -->
    <g id="Baseline">
      <path d="M 50.5 79.4969 L 252.318 79.4969 "
        stroke="rgb(14,129,255)" stroke-dasharray="5,3" stroke-linecap="butt" fill="none" stroke-width="2"/>
    </g>
    <!-- Observed accuracy -->
    <g id="Observed_accuracy">
      <defs>
        <clipPath id="clipPath2">
          <rect x="50.5" y="19.5" width="222" height="271"/>
        </clipPath>
      </defs>
      <g clip-path="url(#clipPath2)">
        <path d="M 50.5 79.4969 L 70.6818 86.4436 L 90.8636 107.005 L 111.045 128.433 L 131.227 68.9431 
                 L 151.409 118.297 L 171.591 120.058 L 191.773 90.1978 L 211.955 89.2737 L 232.136 91.7572 
                 L 252.318 92.9114 "
          stroke="rgb(15,128,255)" fill="none" stroke-width="2"/>
      </g>
      <g>
        <g transform="translate(45,84.9969)">>
          <circle cx="5.5" cy="-5.5" r="2.5" fill="white" stroke="none"/>
          <circle cx="5.5" cy="-5.5" r="2.5" stroke="rgb(15,128,255)" fill="none" stroke-width="2"/>
        </g>
        <g transform="translate(65.1818,91.9436)">>
          <circle cx="5.5" cy="-5.5" r="2.5" fill="white" stroke="none"/>
          <circle cx="5.5" cy="-5.5" r="2.5" stroke="rgb(15,128,255)" fill="none" stroke-width="2"/>
        </g>
        <g transform="translate(85.3636,112.505)">>
          <circle cx="5.5" cy="-5.5" r="2.5" fill="white" stroke="none"/>
          <circle cx="5.5" cy="-5.5" r="2.5" stroke="rgb(15,128,255)" fill="none" stroke-width="2"/>
        </g>
        <g transform="translate(105.545,133.933)">>
          <circle cx="5.5" cy="-5.5" r="2.5" fill="white" stroke="none"/>
          <circle cx="5.5" cy="-5.5" r="2.5" stroke="rgb(15,128,255)" fill="none" stroke-width="2"/>
        </g>
        <g transform="translate(125.727,74.4431)">>
          <circle cx="5.5" cy="-5.5" r="2.5" fill="white" stroke="none"/>
          <circle cx="5.5" cy="-5.5" r="2.5" stroke="rgb(15,128,255)" fill="none" stroke-width="2"/>
        </g>
        <g transform="translate(145.909,123.797)">>
          <circle cx="5.5" cy="-5.5" r="2.5" fill="white" stroke="none"/>
          <circle cx="5.5" cy="-5.5" r="2.5" stroke="rgb(15,128,255)" fill="none" stroke-width="2"/>
        </g>
        <g transform="translate(166.091,125.558)">>
          <circle cx="5.5" cy="-5.5" r="2.5" fill="white" stroke="none"/>
          <circle cx="5.5" cy="-5.5" r="2.5" stroke="rgb(15,128,255)" fill="none" stroke-width="2"/>
        </g>
        <g transform="translate(186.273,95.6978)">>
          <circle cx="5.5" cy="-5.5" r="2.5" fill="white" stroke="none"/>
          <circle cx="5.5" cy="-5.5" r="2.5" stroke="rgb(15,128,255)" fill="none" stroke-width="2"/>
        </g>
        <g transform="translate(206.455,94.7737)">>
          <circle cx="5.5" cy="-5.5" r="2.5" fill="white" stroke="none"/>
          <circle cx="5.5" cy="-5.5" r="2.5" stroke="rgb(15,128,255)" fill="none" stroke-width="2"/>
        </g>
        <g transform="translate(226.636,97.2572)">>
          <circle cx="5.5" cy="-5.5" r="2.5" fill="white" stroke="none"/>
          <circle cx="5.5" cy="-5.5" r="2.5" stroke="rgb(15,128,255)" fill="none" stroke-width="2"/>
        </g>
        <g transform="translate(246.818,98.4114)">>
          <circle cx="5.5" cy="-5.5" r="2.5" fill="white" stroke="none"/>
          <circle cx="5.5" cy="-5.5" r="2.5" stroke="rgb(15,128,255)" fill="none" stroke-width="2"/>
        </g>
      </g>
    </g>
    <!-- Legend -->
    <g id="Legend">
      <g>
        <defs>
          <clipPath id="clipPath3">
            <rect x="55.5" y="337.38" width="14" height="12.24"/>
          </clipPath>
        </defs>
        <g clip-path="url(#clipPath3)">
          <path d="M 55.5 343.5 L 69.5 343.5 "
            stroke="rgb(14,129,255)" stroke-dasharray="5,3" stroke-dashoffset="3.5" stroke-linecap="butt" fill="none" stroke-width="2"/>
        </g>
        <g font-family="Helvetica" font-size="12" fill="black">
          <text x="74.5" y="347.804">Baseline</text>
        </g>
        <g>
          <path d="M 132.5 343.5 L 146.5 343.5 "
            stroke="rgb(15,128,255)" fill="none" stroke-width="2"/>
          <g>
            <circle cx="139.5" cy="343.5" r="2.5" fill="white" stroke="none"/>
            <circle cx="139.5" cy="343.5" r="2.5" stroke="rgb(15,128,255)" fill="none" stroke-width="2"/>
          </g>
        </g>
        <g font-family="Helvetica" font-size="12" fill="black">
          <text x="151.5" y="347.804">Observed accuracy</text>
        </g>
      </g>
    </g>
  </g>
  <!-- Foreground -->
  <g id="Foreground">
    <!-- Y Axis -->
    <g id="Y_Axis">
      <g transform="translate(14.0188,155) rotate(-90) translate(-14.0188,-155)" font-family="Helvetica" font-size="12" fill="black">
        <text x="-10.6551" y="155">Accuracy</text>
      </g>
      <!-- Y Labels -->
      <g id="Y_Labels">
        <g font-family="Helvetica" font-size="12" fill="black">
          <text x="33.4262" y="294.804">0</text>
        </g>
        <g font-family="Helvetica" font-size="12" fill="black">
          <text x="23.4184" y="245.531">0,2</text>
        </g>
        <g font-family="Helvetica" font-size="12" fill="black">
          <text x="23.4184" y="196.258">0,4</text>
        </g>
        <g font-family="Helvetica" font-size="12" fill="black">
          <text x="23.4184" y="146.986">0,6</text>
        </g>
        <g font-family="Helvetica" font-size="12" fill="black">
          <text x="23.4184" y="97.7128">0,8</text>
        </g>
        <g font-family="Helvetica" font-size="12" fill="black">
          <text x="23.4184" y="48.4401">1,0</text>
        </g>
      </g>
      <path d="M 42.5 290.5 L 50.5 290.5 M 46.5 265.864 L 50.5 265.864 M 42.5 241.227 L 50.5 241.227 
               M 46.5 216.591 L 50.5 216.591 M 42.5 191.955 L 50.5 191.955 M 46.5 167.318 L 50.5 167.318 
               M 42.5 142.682 L 50.5 142.682 M 46.5 118.045 L 50.5 118.045 M 42.5 93.4091 L 50.5 93.4091 
               M 46.5 68.7727 L 50.5 68.7727 M 42.5 44.1364 L 50.5 44.1364 M 46.5 19.5 L 50.5 19.5 "
        stroke="black" fill="none" stroke-width="0.5"/>
    </g>
    <!-- X Axis -->
    <g id="X_Axis">
      <g font-family="Helvetica" font-size="12" fill="black">
        <text x="108.624" y="328">Labeled paragraphs</text>
      </g>
      <g>
        <g font-family="Helvetica" font-size="12" fill="black">
          <text x="47.1631" y="309.69">0</text>
        </g>
        <g font-family="Helvetica" font-size="12" fill="black">
          <text x="87.5267" y="309.69">2</text>
        </g>
        <g font-family="Helvetica" font-size="12" fill="black">
          <text x="127.89" y="309.69">4</text>
        </g>
        <g font-family="Helvetica" font-size="12" fill="black">
          <text x="168.254" y="309.69">6</text>
        </g>
        <g font-family="Helvetica" font-size="12" fill="black">
          <text x="208.618" y="309.69">8</text>
        </g>
        <g font-family="Helvetica" font-size="12" fill="black">
          <text x="245.644" y="309.69">10</text>
        </g>
      </g>
      <path d="M 50.5 298.5 L 50.5 290.5 M 90.8636 298.5 L 90.8636 290.5 M 131.227 298.5 L 131.227 290.5 
               M 171.591 298.5 L 171.591 290.5 M 211.955 298.5 L 211.955 290.5 M 252.318 298.5 L 252.318 290.5 
               M 70.6818 294.5 L 70.6818 290.5 M 111.045 294.5 L 111.045 290.5 M 151.409 294.5 L 151.409 290.5 
               M 191.773 294.5 L 191.773 290.5 M 232.136 294.5 L 232.136 290.5 M 272.5 294.5 L 272.5 290.5 "
        stroke="black" fill="none" stroke-width="0.5"/>
    </g>
    <g font-family="Helvetica-Bold" font-size="13" fill="black">
      <text x="130.425" y="14.639">Accuracy </text>
    </g>
    <path d="M 272.5 290.5 L 272.5 19.5 L 50.5 19.5 L 50.5 290.5 L 272.5 290.5 z "
      stroke="black" stroke-linecap="square" fill="none" stroke-width="0.5"/>
  </g>
</g>
</svg>
